<svg viewBox="0 -10 1044 1044" fill="#000000" class="icon" version="1.1"
    xmlns="http://www.w3.org/2000/svg">
    <g id="SVGRepo_bgCarrier" stroke-width="0"></g>
    <g id="SVGRepo_tracerCarrier" stroke-linecap="round" stroke-linejoin="round"></g>
    <g id="SVGRepo_iconCarrier">
        <path
            d="M894.702108 721.774905a144.027005 144.027005 0 0 1-90.64295-31.51736l-16.980283-13.559794a70.364338 70.364338 0 0 0-83.679812-3.542649l-41.412345 27.852551a36.770253 36.770253 0 0 1-40.923704-61.080155l41.412345-27.852551a143.416204 143.416204 0 0 1 170.413632 7.207459l16.980283 13.559794a71.0973 71.0973 0 0 0 84.412774 3.054008l42.023147-28.707673a36.660309 36.660309 0 0 1 41.656665 60.347193l-41.656665 28.707673a143.660524 143.660524 0 0 1-81.603087 25.531504zM894.702108 872.887208a144.027005 144.027005 0 0 1-90.276469-31.51736l-16.980283-13.559794a70.364338 70.364338 0 0 0-83.679812-3.542649l-41.412345 27.241749a36.770253 36.770253 0 0 1-40.923704-61.080155l41.412345-27.85255a143.416204 143.416204 0 0 1 170.413632 7.207458l16.980283 13.559794a71.0973 71.0973 0 0 0 84.412774 3.054008l41.656666-28.707673a36.660309 36.660309 0 0 1 41.656665 60.347193l-41.656665 28.707673a143.660524 143.660524 0 0 1-81.603087 26.142306zM894.702108 1023.999511a144.027005 144.027005 0 0 1-90.276469-31.51736l-16.980283-13.559794a70.364338 70.364338 0 0 0-83.679812-3.542649l-41.412345 27.852551a36.770253 36.770253 0 0 1-40.923704-61.080155l41.412345-27.852551a143.416204 143.416204 0 0 1 170.413632 7.207459l16.980283 13.559794a71.219461 71.219461 0 0 0 84.412774 3.054008l41.656666-28.707673a36.660309 36.660309 0 0 1 41.656665 60.347193l-41.656665 28.707673a143.660524 143.660524 0 0 1-81.603087 25.531504zM751.896706 1007.63003h1.588084-0.732962z m81.847407-450.160741a194.357053 194.357053 0 0 1 38.602658 24.432062h30.417917v-48.864124h-69.387056v24.432062z m-629.003434-24.432062h-69.387056v48.864124h69.387056v-48.864124z m838.874846-81.847408a49.597086 49.597086 0 0 0-49.474925-48.864123H840.707251a47.031719 47.031719 0 0 0 1.099443-7.085298 60.347193 60.347193 0 0 0-31.3952-67.188171l-234.181313-121.183027v-24.432062a114.34205 114.34205 0 0 0 24.432061-2.809687h1.954565a102.248179 102.248179 0 0 1 61.080155 0h1.954565a43.000429 43.000429 0 0 0 39.45778-5.130733 41.412345 41.412345 0 0 0 16.491642-32.616803V48.549439l-13.681955-9.039863a74.517789 74.517789 0 0 0-19.78997-8.917703 290.741537 290.741537 0 0 0-113.486927-1.099442 47.764681 47.764681 0 0 0-10.750108-14.781398A59.858552 59.858552 0 0 0 522.235324 0.051796a53.261895 53.261895 0 0 0-55.582941 51.551651v154.654952l-213.658382 112.143164c-42.145307 17.468924-50.818689 51.30733-48.864124 70.486499a80.503644 80.503644 0 0 0 1.343764 12.216031H38.358337a37.381055 37.381055 0 0 0-37.258894 36.648092L0.12216 1006.530587h571.83241a85.512217 85.512217 0 0 1-3.176168-61.080155H272.661811l18.568367-19.179168h287.076728a85.512217 85.512217 0 0 1 5.008573-7.451779l17.957565-22.721818-17.957565-22.721817c-1.343763-1.710244-2.687527-3.298328-3.78697-5.130733a85.512217 85.512217 0 0 1 3.78697-100.660096l12.21603-15.392199v-14.537076l-12.21603-15.392199c-1.343763-1.710244-2.687527-3.298328-3.78697-5.130733a85.512217 85.512217 0 0 1 16.003-113.242607v-105.668668a7.085298 7.085298 0 0 1 7.085298-7.085298h4.153451a7.085298 7.085298 0 0 1 7.085298 7.085298v92.841835l30.417917-20.400772a195.456495 195.456495 0 0 1 30.662238-16.735962v-55.705101a68.165453 68.165453 0 0 0-68.165453-68.165453h-4.153451a68.165453 68.165453 0 0 0-68.165452 68.165453v366.480929h-22.111016V494.92321a62.790399 62.790399 0 0 0-62.546079-62.790399h-17.713245a62.790399 62.790399 0 0 0-62.790399 62.790399v370.390059h-25.897986V386.322695h-78.426918v-3.298328a26.875268 26.875268 0 0 1 12.216031-8.551222l244.320619-128.024004 260.690101 134.37634a15.392199 15.392199 0 0 1 0 3.054008 33.349765 33.349765 0 0 1-5.252894 0.977282h-81.480926v162.473212a191.180885 191.180885 0 0 1 56.804544-8.673382h4.275611v-75.983712h226.607374v92.597514a83.557652 83.557652 0 0 1 61.080155 5.985855z m-613.611235 43.977712a1.710244 1.710244 0 0 1 1.710244-1.710244h18.079726a1.710244 1.710244 0 0 1 1.710244 1.710244v371.245181h-21.133733V494.92321z m-148.058295-32.250322v403.129022H265.087872l-60.102872 62.301758v-92.353194H135.597944v109.944278H61.446636l0.855122-483.876986h219.888557zM558.516936 117.814334l-31.028719-14.414916V77.012791c13.681955 14.781397 35.67081 14.903558 51.30733 13.681955h3.90913a253.238322 253.238322 0 0 1 77.693957-2.809687v27.60823a161.251609 161.251609 0 0 0-75.00643 4.642091 50.207887 50.207887 0 0 1-26.753108-2.565366z m-354.264898 516.49379h-69.387056v48.864123h69.387056v-48.864123z m0 101.148736h-69.387056v48.864124h69.387056v-48.864124z"></path>
    </g>
</svg>