<svg fill="#000000" viewBox="0 0 64 64" data-name="Layer 1" id="Layer_1"
    xmlns="http://www.w3.org/2000/svg">
    <g id="SVGRepo_bgCarrier" stroke-width="0"></g>
    <g id="SVGRepo_tracerCarrier" stroke-linecap="round" stroke-linejoin="round"></g>
    <g id="SVGRepo_iconCarrier">
        <title></title>
        <path d="M28,9a7.00818,7.00818,0,0,0-7-7V4a5,5,0,0,1,0,10v2A7.00818,7.00818,0,0,0,28,9Z"></path>
        <path d="M9,16V14A5,5,0,0,1,9,4V2A7,7,0,0,0,9,16Z"></path>
        <path d="M18,12v2A5,5,0,0,0,18,4V6a3,3,0,0,1,0,6Z"></path>
        <path d="M12,6V4a5,5,0,0,0,0,10V12a3,3,0,0,1,0-6Z"></path>
        <path d="M55,2V4a5,5,0,0,1,0,10v2A7,7,0,0,0,55,2Z"></path>
        <path d="M36,9a7.00818,7.00818,0,0,0,7,7V14A5,5,0,0,1,43,4V2A7.00818,7.00818,0,0,0,36,9Z"></path>
        <path d="M52,12v2A5,5,0,0,0,52,4V6a3,3,0,0,1,0,6Z"></path>
        <path d="M46,6V4a5,5,0,0,0,0,10V12a3,3,0,0,1,0-6Z"></path>
        <path
            d="M27,53a11.99567,11.99567,0,0,0-8.76685-11.54669,9.98628,9.98628,0,0,0-.61151-19.09284L15.22552,11.97723a3,3,0,1,0-.451,0L12.37836,22.36047a9.98628,9.98628,0,0,0-.61151,19.09284A11.99567,11.99567,0,0,0,3,53v9H27ZM8.765,37H10.5A1.5,1.5,0,0,0,12,35.5v-1A1.5,1.5,0,0,0,10.5,33h-1a1.5,1.5,0,0,1,0-3h3A1.5,1.5,0,0,0,14,28.5v-1A1.5,1.5,0,0,0,12.5,26H9.72626a7.96775,7.96775,0,0,1,11.50879,1H19.5A1.5,1.5,0,0,0,18,28.5v1A1.5,1.5,0,0,0,19.5,31h1a1.5,1.5,0,0,1,0,3h-3A1.5,1.5,0,0,0,16,35.5v1A1.5,1.5,0,0,0,17.5,38h2.77374A7.96775,7.96775,0,0,1,8.765,37Z"></path>
        <path
            d="M52.23315,41.45331a9.98628,9.98628,0,0,0-.61151-19.09284L49.22552,11.97723a3,3,0,1,0-.451,0L46.37836,22.36047a9.98628,9.98628,0,0,0-.61151,19.09284A11.99567,11.99567,0,0,0,37,53v9H61V53A11.99567,11.99567,0,0,0,52.23315,41.45331ZM42.765,37H44.5A1.5,1.5,0,0,0,46,35.5v-1A1.5,1.5,0,0,0,44.5,33h-1a1.5,1.5,0,0,1,0-3h3A1.5,1.5,0,0,0,48,28.5v-1A1.5,1.5,0,0,0,46.5,26H43.72626a7.96775,7.96775,0,0,1,11.50879,1H53.5A1.5,1.5,0,0,0,52,28.5v1A1.5,1.5,0,0,0,53.5,31h1a1.5,1.5,0,0,1,0,3h-3A1.5,1.5,0,0,0,50,35.5v1A1.5,1.5,0,0,0,51.5,38h2.77374A7.96775,7.96775,0,0,1,42.765,37Z"></path>
    </g>
</svg>